<?xml version="1.0" encoding="UTF-8" standalone="no"?>
<svg width="24px" height="24px" viewBox="0 0 24 24" version="1.1" xmlns="http://www.w3.org/2000/svg" xmlns:xlink="http://www.w3.org/1999/xlink">
    <!-- Generator: Sketch 3.7.2 (28276) - http://www.bohemiancoding.com/sketch -->
    <title>linkedin</title>
    <desc>Created with Sketch.</desc>
    <defs></defs>
    <g id="Page-1" stroke="none" stroke-width="1" fill="none" fill-rule="evenodd">
        <g id="linkedin">
            <g id="linkedin-2" transform="translate(3.000000, 3.000000)">
                <g id="Group">
                    <g id="icomoon-ignore" transform="translate(0.000000, 0.360000)"></g>
                    <path d="M3.96,6.13008 L0.36,6.13008 C0.16128,6.13008 0,6.29208 0,6.49008 L0,17.29008 C0,17.48808 0.16128,17.65008 0.36,17.65008 L3.96,17.65008 C4.15872,17.65008 4.32,17.48808 4.32,17.29008 L4.32,6.49008 C4.32,6.29208 4.15872,6.13008 3.96,6.13008 L3.96,6.13008 Z" id="Shape" fill="#FFFFFF"></path>
                    <path d="M2.30832,0.3492 C1.03536,0.3492 0,1.39824 0,2.68632 C0,3.97584 1.03536,5.02488 2.30832,5.02488 C3.58128,5.02488 4.61664,3.97584 4.61664,2.68632 C4.61664,1.39752 3.58128,0.3492 2.30832,0.3492 L2.30832,0.3492 Z" id="Shape" fill="#FFFFFF"></path>
                    <path d="M12.96,6.05448 C11.20464,6.05448 10.00944,6.48792 9.36,6.8112 L9.36,6.4908 C9.36,6.29208 9.198,6.1308 9,6.1308 L6.12,6.1308 C5.92128,6.1308 5.76,6.29208 5.76,6.4908 L5.76,17.2908 C5.76,17.4888 5.92128,17.6508 6.12,17.6508 L9,17.6508 C9.198,17.6508 9.36,17.4888 9.36,17.2908 L9.36,11.35944 C9.36,10.43424 10.3104,9.74232 11.16,9.74232 C12.0096,9.74232 12.96,10.43424 12.96,11.35944 L12.96,17.2908 C12.96,17.4888 13.122,17.6508 13.32,17.6508 L16.92,17.6508 C17.118,17.6508 17.28,17.4888 17.28,17.2908 L17.28,10.37088 C17.28,7.99056 15.34248,6.05448 12.96,6.05448 L12.96,6.05448 Z" id="Shape" fill="#FFFFFF"></path>
                </g>
            </g>
        </g>
    </g>
</svg>