<svg fill="#fff" width="54" height="30" viewBox="0 0 121 66" xmlns="http://www.w3.org/2000/svg"><path d="M26.849 50.545c.615.77 1.63 1.154 3.046 1.154h6.438c.677 0 1.261.246 1.754.738.491.493.738 1.077.738 1.753v9.319c0 .677-.247 1.261-.738 1.753-.493.493-1.077.738-1.754.738H28.51c-2.892 0-5.521-.415-7.888-1.245-2.369-.831-4.383-2.031-6.044-3.599-1.661-1.569-2.952-3.474-3.875-5.72-.923-2.245-1.384-4.783-1.384-7.612V34.492H2.491c-.678 0-1.261-.245-1.753-.738C.245 33.262 0 32.679 0 32.001v-9.319c0-.676.245-1.26.738-1.753.492-.492 1.075-.738 1.753-.738h6.828V2.975c0-.676.245-1.26.738-1.753.492-.492 1.075-.738 1.753-.738h11.626c.676 0 1.26.246 1.753.738.491.493.738 1.077.738 1.753v17.216h10.426c.676 0 1.26.246 1.753.738.491.493.738 1.077.738 1.753v9.319c0 .678-.247 1.261-.738 1.753-.493.493-1.077.738-1.753.738H25.927V47.27c0 1.416.307 2.507.922 3.275zm79.631 12.941c0 .677-.247 1.26-.738 1.754-.493.491-1.077.738-1.753.738H92.363c-.677 0-1.261-.247-1.753-.738-.493-.494-.738-1.077-.738-1.754V38.418c0-2.83.462-5.368 1.384-7.612.923-2.246 2.214-4.152 3.876-5.721 1.66-1.568 3.674-2.768 6.043-3.598 2.367-.831 4.997-1.246 7.889-1.246h8.765c.676 0 1.26.245 1.753.738.491.492.738 1.076.738 1.753v9.319c0 .676-.247 1.26-.738 1.753-.493.492-1.077.738-1.753.738h-7.381c-1.416 0-2.431.384-3.045 1.154-.616.768-.923 1.86-.923 3.275v24.515m-45.128.023c0 .677-.247 1.261-.738 1.753-.493.493-1.077.738-1.753.738H47.235c-.678 0-1.261-.245-1.753-.738-.493-.492-.738-1.076-.738-1.753V22.682c0-.676.245-1.26.738-1.753.492-.492 1.075-.738 1.753-.738h11.626c.676 0 1.26.246 1.753.738.491.493.738 1.077.738 1.753v40.827zm.112-51.294c0 .677-.247 1.261-.738 1.753-.494.493-1.077.738-1.754.738H47.347c-.678 0-1.261-.245-1.753-.738-.493-.492-.738-1.076-.738-1.753V2.896c0-.676.245-1.26.738-1.753.492-.492 1.075-.738 1.753-.738h11.625c.677 0 1.26.246 1.754.738.491.493.738 1.077.738 1.753v9.319zm22.461 51.294c0 .677-.247 1.261-.738 1.753-.494.493-1.077.738-1.753.738H69.808c-.678 0-1.261-.245-1.753-.738-.493-.492-.738-1.076-.738-1.753V2.982c0-.676.245-1.26.738-1.753.492-.492 1.075-.738 1.753-.738h11.626c.676 0 1.259.246 1.753.738.491.493.738 1.077.738 1.753v60.527m30.582-3.399a.21.21 0 0 1 .151.064.207.207 0 0 1 .063.151v.287a.205.205 0 0 1-.063.15.206.206 0 0 1-.151.064h-1.487v4.633a.207.207 0 0 1-.063.151.21.21 0 0 1-.151.064h-.326a.208.208 0 0 1-.151-.064.208.208 0 0 1-.064-.151v-4.633h-1.486a.206.206 0 0 1-.151-.064.205.205 0 0 1-.063-.15v-.287c0-.058.021-.109.063-.151a.21.21 0 0 1 .151-.064h3.728m3.552 3.362l1.605-3.107a.622.622 0 0 1 .131-.175.306.306 0 0 1 .219-.08h.302a.21.21 0 0 1 .151.064.207.207 0 0 1 .063.151v5.134a.207.207 0 0 1-.063.151.21.21 0 0 1-.151.064h-.326a.208.208 0 0 1-.151-.064.204.204 0 0 1-.064-.151v-3.767l-1.24 2.392a.7.7 0 0 1-.135.187.265.265 0 0 1-.19.068h-.302a.267.267 0 0 1-.191-.068.7.7 0 0 1-.135-.187l-1.24-2.392v3.767a.207.207 0 0 1-.063.151.21.21 0 0 1-.151.064h-.326a.206.206 0 0 1-.151-.064.204.204 0 0 1-.064-.151v-5.134c0-.058.021-.109.064-.151a.206.206 0 0 1 .151-.064h.302c.09 0 .163.027.218.08.056.053.1.111.131.175l1.606 3.107"/></svg>