<svg width="1440" height="788" viewBox="0 0 1440 788" xmlns="http://www.w3.org/2000/svg" style="background:#2696ba"><title>Artboard</title><g fill="none" fill-rule="evenodd"><path fill="#0C6591" d="M1533.979 427.393l210.718-210.718L1143.02-385 932.303-174.282zm-1627.958-78.59l-210.718 210.718 601.676 601.676 210.718-210.718z"/><path fill="#52ACC8" d="M-93.979 427.393l-210.718-210.718L296.98-385l210.718 210.718zm832.577-38.587c-9.764-9.764-25.588-9.771-35.357-.002L82.915 1009.129l178.335 178.335L899.253 549.46 738.598 388.806z"/><path d="M723.048 381.544a24.9 24.9 0 0 1 15.88 7.26l160.658 160.658-178.335 178.335-178.334-178.335 160.658-160.658c5.342-5.341 12.493-7.76 19.474-7.26z" fill="#1C759B"/><path fill="#0E6690" d="M721.251 727.797l178.335-178.335 459.667 459.667-178.335 178.335z"/><path fill="#52ACC8" d="M1533.979 348.803l210.718 210.718-601.676 601.676-210.718-210.718z"/><path d="M720 769.92l-3.376-2.7a1.003 1.003 0 0 0-1.406.157 1.004 1.004 0 0 0 .156 1.406l5 3.998c.366.292.884.292 1.25 0l5-3.998A.996.996 0 0 0 727 768c0-.222-.074-.442-.218-.626-.344-.43-.974-.5-1.406-.156l-3.376 2.7v-20.42c0-.275-.448-.5-1-.5s-1 .226-1 .5v20.42z" fill="#FFF"/><circle fill="#2696BA" cx="720" cy="553" r="65"/><path d="M732.908 563.016c-1.38 0-2.5-1.12-2.5-2.502a2.501 2.501 0 1 1 5 0 2.502 2.502 0 0 1-2.5 2.502zm-9.83 0c-1.38 0-2.5-1.12-2.5-2.502a2.501 2.501 0 1 1 5 0 2.501 2.501 0 0 1-2.5 2.502zm-9.829 0c-1.38 0-2.5-1.12-2.5-2.502a2.501 2.501 0 1 1 5 0 2.502 2.502 0 0 1-2.5 2.502zm24.071-9.663h-3.21v-3.316l-2.121-2.124h-4.122v-5.31c0-.333.072-.59.216-.77.144-.18.383-.27.715-.27h1.733a.563.563 0 0 0 .411-.174.564.564 0 0 0 .173-.412v-2.19a.564.564 0 0 0-.173-.411.562.562 0 0 0-.411-.174h-2.058c-.679 0-1.296.098-1.852.293a3.927 3.927 0 0 0-1.418.845 3.81 3.81 0 0 0-.91 1.344c-.216.528-.324 1.124-.324 1.789v5.44h-3.867l-2.122 2.124v3.316h-9.745l-5.27 4.786c-.51-.08-.988-.232-1.355-.525-1.041-.832-1.157-2.346-1.17-2.746l-.37-.31h-3.669l-.4.423c-.01.484.027 3.292 1.976 5.356.063.067.13.13.195.194-.066.064-.132.128-.195.194-1.95 2.064-1.986 4.872-1.976 5.356l.4.423h3.67l.37-.31c.012-.4.128-1.914 1.169-2.746.367-.293.844-.444 1.355-.525l5.27 4.786h29.085l5.775-5.061v-4.509l-5.775-4.786z" fill="#FFF"/></g></svg>